<svg width="198" height="28" viewBox="0 0 198 28" fill="none" xmlns="http://www.w3.org/2000/svg">
<rect x="41" y="19" width="2" height="6" rx="1" fill="#1C3A13"/>
<rect x="45" y="3" width="2" height="22" rx="1" fill="#1C3A13" fill-opacity="0.5"/>
<rect x="49" y="11" width="2" height="14" rx="1" fill="#1C3A13" fill-opacity="0.7"/>
<rect x="53" y="15" width="2" height="10" rx="1" fill="#1C3A13"/>
<rect x="57" y="9" width="2" height="16" rx="1" fill="#1C3A13"/>
<rect x="61" y="13" width="2" height="12" rx="1" fill="#1C3A13" fill-opacity="0.3"/>
<rect x="175" y="3" width="22" height="22" rx="11" fill="#1C3A13" stroke="#1C3A13" stroke-width="1.5"/>
<path d="M184 9V19" stroke="#FCFCF7" stroke-width="1.5"/>
<path d="M188 9V19" stroke="#FCFCF7" stroke-width="1.5"/>
<path opacity="0.5" d="M74.23 25.15C72.53 25.15 71.46 24.15 71.35 22.79H72.66C72.79 23.62 73.37 24.11 74.32 24.11C75.16 24.11 75.73 23.67 75.73 23.07C75.73 22.53 75.37 22.3 74.55 22.1L73.64 21.88C72.24 21.54 71.54 20.97 71.54 19.94C71.54 18.68 72.68 17.85 74.15 17.85C75.81 17.85 76.69 18.74 76.84 19.75H75.6C75.44 19.21 74.93 18.85 74.13 18.85C73.39 18.85 72.82 19.23 72.82 19.82C72.82 20.29 73.11 20.5 73.93 20.7L74.81 20.92C76.27 21.29 77.04 21.87 77.04 22.94C77.04 24.23 75.89 25.15 74.23 25.15ZM80.3567 25.15C78.7267 25.15 77.7067 24.07 77.7067 22.45C77.7067 20.85 78.8867 19.74 80.2767 19.74C81.7967 19.74 82.8267 20.84 82.8467 22.79H78.9367C78.9967 23.65 79.5767 24.21 80.3767 24.21C80.9567 24.21 81.2867 23.97 81.4467 23.66H82.7067C82.4367 24.53 81.6067 25.15 80.3567 25.15ZM78.9467 21.91H81.6567C81.5267 21.18 81.0667 20.69 80.3067 20.69C79.6067 20.69 79.0567 21.2 78.9467 21.91ZM86.1563 25.15C84.5263 25.15 83.5063 24.07 83.5063 22.45C83.5063 20.85 84.6863 19.74 86.0763 19.74C87.5963 19.74 88.6263 20.84 88.6463 22.79H84.7363C84.7963 23.65 85.3763 24.21 86.1763 24.21C86.7563 24.21 87.0863 23.97 87.2463 23.66H88.5063C88.2363 24.53 87.4063 25.15 86.1563 25.15ZM84.7463 21.91H87.4563C87.3263 21.18 86.8663 20.69 86.1063 20.69C85.4063 20.69 84.8563 21.2 84.7463 21.91ZM91.6059 25.15C90.3059 25.15 89.3259 24.12 89.3259 22.44C89.3259 20.76 90.3059 19.74 91.6059 19.74C92.3559 19.74 92.8859 20.09 93.1659 20.55V18H94.3559V25H93.1659V24.35C92.8959 24.82 92.3559 25.15 91.6059 25.15ZM91.8459 24.2C92.6359 24.2 93.1859 23.45 93.1859 22.44C93.1859 21.43 92.6359 20.69 91.8459 20.69C91.0059 20.69 90.5459 21.38 90.5459 22.44C90.5459 23.5 91.0059 24.2 91.8459 24.2Z" fill="#1C3A13"/>
<path d="M71.83 11V4H74.18C75.62 4 76.6 4.66 76.6 5.84C76.6 6.61 76.08 7.18 75.42 7.36C76.18 7.52 76.8 8.1 76.8 9.01C76.8 10.29 75.68 11 74.22 11H71.83ZM74.18 6.97C74.92 6.97 75.34 6.58 75.34 5.97C75.34 5.27 74.84 5.01 74.07 5.01H73.07V6.97H74.18ZM73.07 9.98H74.12C75.03 9.98 75.53 9.64 75.53 8.96C75.53 8.31 75.09 7.91 74.18 7.91H73.07V9.98ZM77.8907 11V5.89H79.0707V11H77.8907ZM78.4807 5.37C78.0407 5.37 77.6907 5.02 77.6907 4.58C77.6907 4.15 78.0407 3.8 78.4807 3.8C78.9107 3.8 79.2507 4.15 79.2507 4.58C79.2507 5.02 78.9107 5.37 78.4807 5.37ZM82.7279 11.15C81.2379 11.15 80.1079 10.02 80.1079 8.44C80.1079 6.87 81.2379 5.74 82.7279 5.74C84.2179 5.74 85.3379 6.87 85.3379 8.44C85.3379 10.02 84.2179 11.15 82.7279 11.15ZM82.7279 10.18C83.5679 10.18 84.1179 9.56 84.1179 8.44C84.1179 7.33 83.5679 6.71 82.7279 6.71C81.8879 6.71 81.3279 7.33 81.3279 8.44C81.3279 9.56 81.8879 10.18 82.7279 10.18ZM86.3747 11V5.89H87.5347V6.55C87.8047 6.11 88.3147 5.74 89.0547 5.74C90.0847 5.74 90.7547 6.39 90.7547 7.59V11H89.5647V7.69C89.5647 7.14 89.3347 6.71 88.7147 6.71C88.1247 6.71 87.5647 7.14 87.5647 8.15V11H86.3747ZM92.0962 11V5.89H93.2762V11H92.0962ZM92.6862 5.37C92.2462 5.37 91.8962 5.02 91.8962 4.58C91.8962 4.15 92.2462 3.8 92.6862 3.8C93.1162 3.8 93.4562 4.15 93.4562 4.58C93.4562 5.02 93.1162 5.37 92.6862 5.37ZM96.8634 11.15C95.4034 11.15 94.3234 10.13 94.3234 8.45C94.3234 6.81 95.4234 5.75 96.8934 5.75C98.2234 5.75 99.0434 6.55 99.1934 7.5H98.0134C97.8534 7.04 97.4934 6.73 96.9134 6.73C96.1534 6.73 95.5734 7.33 95.5734 8.45C95.5734 9.58 96.1534 10.16 96.8934 10.16C97.5134 10.16 97.8634 9.83 98.0134 9.39H99.1934C99.0534 10.34 98.2134 11.15 96.8634 11.15ZM102.496 11V4H106.976V5.1H103.746V6.97H106.476V8.03H103.746V11H102.496ZM107.599 11V5.89H108.769V6.93C109.089 6.03 109.689 5.7 110.579 5.75V6.89C110.219 6.86 109.919 6.87 109.669 6.96C109.059 7.18 108.789 7.78 108.789 8.69V11H107.599ZM113.57 11.15C111.94 11.15 110.92 10.07 110.92 8.45C110.92 6.85 112.1 5.74 113.49 5.74C115.01 5.74 116.04 6.84 116.06 8.79H112.15C112.21 9.65 112.79 10.21 113.59 10.21C114.17 10.21 114.5 9.97 114.66 9.66H115.92C115.65 10.53 114.82 11.15 113.57 11.15ZM112.16 7.91H114.87C114.74 7.18 114.28 6.69 113.52 6.69C112.82 6.69 112.27 7.2 112.16 7.91ZM120.58 12.95V10.35C120.31 10.82 119.77 11.15 119.02 11.15C117.72 11.15 116.74 10.12 116.74 8.44C116.74 6.76 117.72 5.74 119.02 5.74C119.77 5.74 120.3 6.09 120.58 6.55V5.89H121.77V12.95H120.58ZM119.26 10.2C120.05 10.2 120.6 9.45 120.6 8.44C120.6 7.43 120.05 6.69 119.26 6.69C118.42 6.69 117.96 7.38 117.96 8.44C117.96 9.5 118.42 10.2 119.26 10.2ZM124.802 11.15C123.802 11.15 123.102 10.5 123.102 9.27V5.89H124.292V9.08C124.292 9.76 124.552 10.16 125.152 10.16C125.682 10.16 126.222 9.75 126.222 8.72V5.89H127.412V11H126.242V10.38C125.962 10.87 125.462 11.15 124.802 11.15ZM131.106 11.15C129.476 11.15 128.456 10.07 128.456 8.45C128.456 6.85 129.636 5.74 131.026 5.74C132.546 5.74 133.576 6.84 133.596 8.79H129.686C129.746 9.65 130.326 10.21 131.126 10.21C131.706 10.21 132.036 9.97 132.196 9.66H133.456C133.186 10.53 132.356 11.15 131.106 11.15ZM129.696 7.91H132.406C132.276 7.18 131.816 6.69 131.056 6.69C130.356 6.69 129.806 7.2 129.696 7.91ZM134.605 11V5.89H135.765V6.55C136.035 6.11 136.545 5.74 137.285 5.74C138.315 5.74 138.985 6.39 138.985 7.59V11H137.795V7.69C137.795 7.14 137.565 6.71 136.945 6.71C136.355 6.71 135.795 7.14 135.795 8.15V11H134.605ZM142.527 11.15C141.067 11.15 139.987 10.13 139.987 8.45C139.987 6.81 141.087 5.75 142.557 5.75C143.887 5.75 144.707 6.55 144.857 7.5H143.677C143.517 7.04 143.157 6.73 142.577 6.73C141.817 6.73 141.237 7.33 141.237 8.45C141.237 9.58 141.817 10.16 142.557 10.16C143.177 10.16 143.527 9.83 143.677 9.39H144.857C144.717 10.34 143.877 11.15 142.527 11.15ZM145.853 11V5.89H147.033V11H145.853ZM146.443 5.37C146.003 5.37 145.653 5.02 145.653 4.58C145.653 4.15 146.003 3.8 146.443 3.8C146.873 3.8 147.213 4.15 147.213 4.58C147.213 5.02 146.873 5.37 146.443 5.37ZM150.72 11.15C149.09 11.15 148.07 10.07 148.07 8.45C148.07 6.85 149.25 5.74 150.64 5.74C152.16 5.74 153.19 6.84 153.21 8.79H149.3C149.36 9.65 149.94 10.21 150.74 10.21C151.32 10.21 151.65 9.97 151.81 9.66H153.07C152.8 10.53 151.97 11.15 150.72 11.15ZM149.31 7.91H152.02C151.89 7.18 151.43 6.69 150.67 6.69C149.97 6.69 149.42 7.2 149.31 7.91ZM156.12 11.15C154.71 11.15 153.87 10.44 153.8 9.41H155.08C155.15 9.93 155.53 10.27 156.18 10.27C156.72 10.27 157.1 10.02 157.1 9.61C157.1 9.26 156.86 9.09 156.2 8.94L155.63 8.81C154.56 8.56 153.98 8.15 153.98 7.29C153.98 6.38 154.82 5.75 155.99 5.75C157.31 5.75 158.01 6.44 158.12 7.27H156.93C156.82 6.83 156.47 6.62 155.97 6.62C155.51 6.62 155.17 6.84 155.17 7.21C155.17 7.55 155.39 7.68 155.92 7.81L156.5 7.95C157.58 8.21 158.29 8.63 158.29 9.49C158.29 10.5 157.36 11.15 156.12 11.15Z" fill="#1C3A13"/>
</svg>
